<?xml version="1.0" encoding="UTF-8" standalone="no"?>
<svg width="1032px" height="196px" viewBox="0 0 1032 196" version="1.1" xmlns="http://www.w3.org/2000/svg" xmlns:xlink="http://www.w3.org/1999/xlink">
    <title>Group</title>
    <desc>Created with Sketch.</desc>
    <defs>
        <linearGradient x1="38.1530524%" y1="0%" x2="38.1530523%" y2="100%" id="linearGradient-1">
            <stop stop-color="#AE0000" offset="0%"></stop>
            <stop stop-color="#E80D26" offset="100%"></stop>
        </linearGradient>
        <linearGradient x1="38.1530524%" y1="0%" x2="38.1530523%" y2="98.2003348%" id="linearGradient-2">
            <stop stop-color="#FF5353" offset="0%"></stop>
            <stop stop-color="#BA1A1A" offset="100%"></stop>
        </linearGradient>
    </defs>
    <g id="Page-1" stroke="none" stroke-width="1" fill="none" fill-rule="evenodd">
        <g id="Artboard-7" transform="translate(-791.000000, -720.000000)">
            <g id="Group" transform="translate(791.000000, 720.000000)">
                <path d="M109.6875,194.768555 L38.8125,55.6904297 L38.8125,194.768555 L0,194.768555 L0,0.143554688 L51.46875,0.143554688 L117.421875,131.34668 L117.421875,0.143554688 L156.375,0.143554688 L156.375,194.768555 L109.6875,194.768555 Z M302.638765,155.25293 L302.984375,155.25293 L315.921875,194.768555 L356.5625,194.768555 L292.015625,0.143554688 L240.40625,0.143554688 L176,194.768555 L215.375,194.768555 L228.03125,155.25293 L293.371831,155.25293 L282.141705,120.581055 L237,120.581055 L264.29799,40.1435547 L291.450001,120.581055 L291.404453,120.581055 L302.638765,155.25293 Z M532.021875,194.768555 L532.021875,63.9873047 L485.334375,145.268555 L462.4125,145.268555 L416.2875,63.9873047 L416.2875,194.768555 L378.0375,194.768555 L378.0375,0.143554688 L423.740625,0.143554688 L474.50625,92.5341797 L525.69375,0.143554688 L570.4125,0.143554688 L570.4125,194.768555 L532.021875,194.768555 Z M977.638765,155.25293 L977.984375,155.25293 L990.921875,194.768555 L1031.5625,194.768555 L967.015625,0.143554688 L915.40625,0.143554688 L851,194.768555 L890.375,194.768555 L903.03125,155.25293 L968.371831,155.25293 L957.141705,120.581055 L912,120.581055 L939.29799,40.1435547 L966.450001,120.581055 L966.404453,120.581055 L977.638765,155.25293 Z M708.638765,155.25293 L708.984375,155.25293 L721.921875,194.768555 L762.5625,194.768555 L698.015625,0.143554688 L646.40625,0.143554688 L582,194.768555 L621.375,194.768555 L634.03125,155.25293 L699.371831,155.25293 L688.141705,120.581055 L643,120.581055 L670.29799,40.1435547 L697.450001,120.581055 L697.404453,120.581055 L708.638765,155.25293 Z M831.981251,194.768555 L785.153126,194.768555 L725.246876,0.143554688 L765.465626,0.143554688 L809.340626,145.268555 L853.075001,0.143554688 L892.590626,0.143554688 L831.981251,194.768555 Z" id="NAMAVA-Copy-10" fill="#FFFFFF"></path>
                <path d="M762.223145,194.738279 L721.49707,194.738279 L658,0.143554688 L697.716309,0.143554688 L762.223145,194.738279 Z M784.912842,194.774902 L823.888184,194.774902 L765.287598,0.145019521 L723.979004,0.145019521 L784.912842,194.774902 Z" id="NAMAVA-Copy-11" fill="url(#linearGradient-1)"></path>
                <path d="M762.223145,195.594724 L721.49707,195.594724 L658,1 L697.716309,1 L762.223145,195.594724 Z M784.912842,195.631348 L823.888184,195.631348 L765.287598,1.00146483 L723.979004,1.00146483 L784.912842,195.631348 Z" id="NAMAVA-Copy-4" fill="url(#linearGradient-2)"></path>
            </g>
        </g>
    </g>
</svg>